<?xml version="1.0" encoding="utf-8"?>
<!-- Generator: Adobe Illustrator 22.1.0, SVG Export Plug-In . SVG Version: 6.00 Build 0)  -->
<svg version="1.1" id="Layer_1" xmlns="http://www.w3.org/2000/svg" xmlns:xlink="http://www.w3.org/1999/xlink" x="0px" y="0px"
	 viewBox="0 0 86 84" style="enable-background:new 0 0 86 84;" xml:space="preserve">
<path d="M43.3,9.4c17.7,0,32,14.3,32,32s-14.3,32-32,32s-32-14.3-32-32S25.6,9.4,43.3,9.4z M43.3,12.8c-15.8,0-28.6,12.8-28.6,28.6
	S27.5,70,43.3,70s28.6-12.8,28.6-28.6S59.1,12.8,43.3,12.8z M41.9,33.7c-2.8,1.3-5.2,3.6-7.7,6.9c-0.3,0.5-0.4,0.8,0,1
	c0.2,0.2,0.4,0.1,0.8-0.3c0-0.1,0-0.1,0.1-0.1c0.3-0.3,0.6-0.6,1.1-1.3c1.8-2.1,2.6-2.9,4-3.7c1.2-0.7,2.2,0.3,2,1.6
	c-0.1,0.4-0.1,0.6-0.4,1.2c-0.1,0.2-0.1,0.3-0.2,0.4c-0.4,1.2-0.8,2.1-1.6,4.1v0.1c-0.2,0.6-0.2,0.6-0.5,1.2c-1,2.6-1.6,4.3-2.3,6
	v0.1c-0.1,0.3-0.2,0.6-0.3,0.9c-0.7,2-1.1,3.3-1.5,4.6c0,0.2,0,0.2-0.1,0.4c-0.2,0.8-0.3,1.3-0.3,1.8c-0.1,0.9,0,1.6,0.3,2.2
	c0.3,0.7,1,1.2,1.8,1.3c1.3,0.2,2.5,0.2,3.6-0.1c0.6-0.1,1.2-0.3,1.8-0.5c1.7-0.6,3.3-1.6,4.9-2.9c1.4-1.1,2.7-2.5,4-4.3
	c0.1-0.1,0.1-0.1,0.2-0.3c0.4-0.5,0.6-0.9,0.7-1.2c0.1-0.4-0.2-0.8-0.5-0.7c-0.1,0.1-0.3,0.2-0.5,0.5c-0.1,0.2-0.2,0.3-0.3,0.4
	c-0.3,0.4-0.7,0.7-1,1.1c-0.6,0.7-1.2,1.3-2.1,2.2c-0.5,0.5-1,0.9-1.6,1.2c-1,0.5-1.9-0.1-1.8-1.2c0.1-0.7,0.2-1.5,0.5-2.2
	c0.6-1.6,1-2.9,2.1-5.7c0.4-1.2,0.6-1.7,0.9-2.4c0.7-2,1.3-3.5,1.8-5c0.7-1.9,1.1-3.3,1.2-4.7c0.1-1.1-0.2-2.1-0.9-2.8
	c-0.8-0.8-1.9-1.2-3.2-1.1C45.3,32.4,43.5,32.9,41.9,33.7L41.9,33.7z M52.2,20.7c-2.7-1-5.9,0.8-6.5,3.6c-0.4,2.1,0.4,3.9,2,4.6
	c3.1,1.5,6.9-0.9,6.9-4.4C54.5,22.6,53.7,21.3,52.2,20.7L52.2,20.7z"/>
</svg>
