<?xml version="1.0" encoding="utf-8"?>
<!-- Generator: Adobe Illustrator 22.1.0, SVG Export Plug-In . SVG Version: 6.00 Build 0)  -->
<svg version="1.1" id="Layer_1" xmlns="http://www.w3.org/2000/svg" xmlns:xlink="http://www.w3.org/1999/xlink" x="0px" y="0px"
	 viewBox="0 0 248.8 248.8" style="enable-background:new 0 0 248.8 248.8;" xml:space="preserve">
<style type="text/css">
	.st0{fill:#C97700;}
</style>
<g>
	<path class="st0" d="M108.2,113.7H94c-0.3,0-0.7,0-1,0L63.6,245.9h15.2L108.2,113.7z"/>
	<path class="st0" d="M185.1,245.9l-29.4-132.3c-0.3,0-0.7,0-1,0h-14.2l29.4,132.3H185.1z"/>
	<path class="st0" d="M116.8,113.7H132v132.1h-15.2V113.7z"/>
	<path class="st0" d="M94,83.4v25.8h60.8V83.4H94z"/>
	<path class="st0" d="M67.1,63.6h7.2V18h-7.2c-2.7,0-5.3,1.1-7.2,3s-3,4.5-3,7.2v25.2c0,2.7,1.1,5.3,3,7.2
		C61.8,62.5,64.4,63.6,67.1,63.6L67.1,63.6z"/>
	<path class="st0" d="M174.5,63.6h7.2c2.7,0,5.3-1.1,7.2-3s3-4.5,3-7.2V28.3c0-2.7-1.1-5.3-3-7.2c-1.9-1.9-4.5-3-7.2-3h-7.2V63.6z"
		/>
	<path class="st0" d="M78.8,63.6v7.8c0,4.1,3.3,7.4,7.4,7.4h76.4c4.1,0,7.4-3.3,7.4-7.4V10.2c0-4.1-3.3-7.4-7.4-7.4H86.2
		c-4.1,0-7.4,3.3-7.4,7.4C78.8,10.2,78.8,63.6,78.8,63.6z M124.4,20.1c5.5,0,10.8,2.2,14.6,6.1c3.9,3.9,6.1,9.2,6.1,14.6
		s-2.2,10.8-6.1,14.6c-3.9,3.9-9.2,6.1-14.6,6.1c-5.5,0-10.8-2.2-14.6-6.1c-3.9-3.9-6.1-9.2-6.1-14.6c0-5.5,2.2-10.8,6.1-14.6
		C113.6,22.3,118.9,20.1,124.4,20.1L124.4,20.1z"/>
	<path class="st0" d="M140.5,40.8c0,8.9-7.2,16.2-16.2,16.2s-16.2-7.2-16.2-16.2s7.2-16.2,16.2-16.2S140.5,31.9,140.5,40.8"/>
</g>
</svg>
